<svg width="112" height="60" viewBox="0 0 112 60" fill="none" xmlns="http://www.w3.org/2000/svg">
<path d="M17.3434 59.8822C29.0607 59.8822 35.4788 51.3445 35.4788 40.6281V6.71246C35.4788 3.59176 38.6584 4.18057 38.6584 2.76742C38.6584 1.53091 37.7163 1.29539 35.0078 1.29539H26.941C24.8802 1.29539 23.4081 1.64867 23.4081 2.76742C23.4081 4.23945 26.5877 3.70952 26.5877 6.83022V38.0373C26.5877 47.0461 22.7016 51.4033 17.3434 51.4033C12.2796 51.4033 11.102 50.1079 10.4543 49.5191C9.51217 48.6948 10.8664 47.4583 10.0421 46.4573C9.21777 45.5741 8.45231 46.0451 7.39245 46.8106L2.03425 50.3435C1.20992 50.9323 -0.615404 51.9333 0.208934 52.9931C1.15103 54.2296 2.44642 52.8754 4.15398 54.7007C5.68489 56.1727 10.0421 59.8822 17.3434 59.8822ZM71.9263 60C84.8213 60 94.9489 54.8773 94.9489 42.4534C94.9489 18.1354 57.206 30.0883 57.206 16.6045C57.206 10.0098 64.0951 8.65554 71.9263 8.65554C79.4631 8.65554 82.4072 10.8342 82.996 11.1874C86.941 13.4249 85.0568 15.4858 86.3522 16.1335C87.7065 16.7812 88.1775 15.8979 89.0607 14.4848L93.3002 7.94897C94.1834 6.5947 94.7722 5.41708 93.7124 4.59274C92.2992 3.53288 91.8282 5.88813 88.7663 4.18057C87.7065 3.53288 82.5838 0 71.9263 0C56.3817 0 47.7261 6.00589 47.9616 16.6045C48.5504 40.6869 85.3512 28.734 85.3512 42.4534C85.3512 49.4603 79.1687 51.1089 71.9263 51.1089C59.9145 51.1089 57.0293 47.2228 56.205 46.3984C54.3208 44.5731 55.7928 43.16 54.7919 42.4534C53.732 41.629 52.3777 42.8656 51.3179 44.3376L47.6083 49.4603C46.5485 50.9323 45.5475 52.3454 46.784 53.2287C48.0205 54.1119 48.9626 52.1688 51.4945 53.9941C52.731 54.8773 58.0303 60 71.9263 60ZM106.49 58.999C109.139 58.999 111.318 56.9971 111.318 53.9941C111.318 50.9323 109.434 48.9303 106.49 48.9303C103.663 48.9303 101.544 51.4033 101.544 53.9941C101.544 56.7615 103.84 58.999 106.49 58.999Z" fill="url(#paint0_linear_102_3)"/>
<defs>
<linearGradient id="paint0_linear_102_3" x1="-9.90644" y1="-2.18441" x2="90.9818" y2="44.8605" gradientUnits="userSpaceOnUse">
<stop stop-color="#006678"/>
<stop offset="1" stop-color="#4FA8FF"/>
</linearGradient>
</defs>
</svg>
